<svg xmlns="http://www.w3.org/2000/svg" xmlns:xlink="http://www.w3.org/1999/xlink" viewBox="220 219 1059 1059" preserveAspectRatio="xMidYMid meet" version="1.0"><rect x="220" y="219" width="1059" height="1059" rx="180" ry="180" fill="#132728"/><defs><g/><clipPath id="209aba1fda"><path d="M 0.121094 0.601562 L 701.640625 0.601562 L 701.640625 1058.039062 L 0.121094 1058.039062 Z M 0.121094 0.601562 " clip-rule="nonzero"/></clipPath><clipPath id="97b6a164d6"><rect x="0" width="702" y="0" height="1059"/></clipPath><clipPath id="9354904256"><rect x="0" width="702" y="0" height="1059"/></clipPath></defs><g transform="matrix(1, 0, 0, 1, 399, 219)"><g clip-path="url(#9354904256)"><g clip-path="url(#209aba1fda)"><g transform="matrix(1, 0, 0, 1, 0, 0.000000000000113687)"><g clip-path="url(#97b6a164d6)"><g fill="#ffffff" fill-opacity="1"><g transform="translate(2.228086, 789.202661)"><g><path d="M 164.0625 0 L 81.625 0 L 81.625 -541.5 L 253.78125 -541.5 C 302.269531 -541.5 344.5625 -534.222656 380.65625 -519.671875 C 416.757812 -505.128906 444.644531 -483.710938 464.3125 -455.421875 C 483.976562 -427.128906 493.8125 -391.972656 493.8125 -349.953125 C 493.8125 -306.847656 483.84375 -270.878906 463.90625 -242.046875 C 443.96875 -213.222656 416.351562 -191.671875 381.0625 -177.390625 C 345.769531 -163.117188 304.6875 -155.984375 257.8125 -155.984375 L 164.0625 -155.984375 Z M 256.203125 -465.53125 L 164.0625 -465.53125 L 164.0625 -232.765625 L 256.203125 -232.765625 C 300.921875 -232.765625 337.554688 -242.054688 366.109375 -260.640625 C 394.671875 -279.234375 408.953125 -309.003906 408.953125 -349.953125 C 408.953125 -389.828125 394.941406 -419.054688 366.921875 -437.640625 C 338.898438 -456.234375 301.992188 -465.53125 256.203125 -465.53125 Z M 256.203125 -465.53125 "/></g></g></g><g fill="#0ea7c7" fill-opacity="1"><g transform="translate(465.368401, 789.202661)"><g><path d="M 117.1875 7.28125 C 102.644531 7.28125 90.253906 2.160156 80.015625 -8.078125 C 69.773438 -18.316406 64.65625 -30.710938 64.65625 -45.265625 C 64.65625 -59.804688 69.773438 -72.0625 80.015625 -82.03125 C 90.253906 -92 102.644531 -96.984375 117.1875 -96.984375 C 131.738281 -96.984375 144.128906 -92 154.359375 -82.03125 C 164.597656 -72.0625 169.71875 -59.804688 169.71875 -45.265625 C 169.71875 -30.710938 164.597656 -18.316406 154.359375 -8.078125 C 144.128906 2.160156 131.738281 7.28125 117.1875 7.28125 Z M 117.1875 7.28125 "/></g></g></g></g></g></g></g></g></svg>